# xmcd CD database file generated by MAGIX-FreeDB-MP3_Maker_12 v2.0beta1
# 
# Track frame offsets:
#      150
#      18272
#      37947
#      50598
#      73882
#      84541
#      102600
#      126045
#      155800
#      172624
#      188361
#      202140
#      218833
#      231876
#      250518
#      269205
# 
# Disc length: 3801 seconds
# 
# Revision: 2 
# Processed by: cddbd v1.5.2PL0 Copyright (c) Steve Scherf et al.
# Submitted via: MAGIX-FreeDB-MP3_Maker_12 v2.0beta1
# 
DISCID=e00ed710
DTITLE=Commodores - Road Hits  CD1
DYEAR=2004
DGENRE=Rock
TTITLE0=Elton John - Your Song
TTITLE1=Commodores - Nightshift
TTITLE2=Wet Wet Wet - Yesterday
TTITLE3=Scorpions - Wind Of Change
TTITLE4=J. J. Cale - After Midnight
TTITLE5=Maria June Nayler and Robert Miles - One and One
TTITLE6=Lighthouse Family - High
TTITLE7=Incognito - Don't You Worry 'Bout A Thing
TTITLE8=CeCe Peniston - Finally
TTITLE9=ABC - Look Of Love
TTITLE10=Amazulu - Too Good To Be Forgotten
TTITLE11=Emilia - Good Sign
TTITLE12=Tom Jones - She's A Lady
TTITLE13=Aqua - Turn Back Time
TTITLE14=Nate Dogg and Warren G - Regulate
TTITLE15=Jan Hammer - Crockett's Theme
EXTD=YEAR: 2004
EXTT0=
EXTT1=
EXTT2=
EXTT3=
EXTT4=
EXTT5=
EXTT6=
EXTT7=
EXTT8=
EXTT9=
EXTT10=
EXTT11=
EXTT12=
EXTT13=
EXTT14=
EXTT15=
PLAYORDER=
